<svg width="155" height="37" viewBox="0 0 155 37" fill="none" xmlns="http://www.w3.org/2000/svg">
<g clip-path="url(#clip0_2020_23259)">
<mask id="mask0_2020_23259" style="mask-type:luminance" maskUnits="userSpaceOnUse" x="0" y="0" width="155" height="37">
<path d="M155 0H0V37H155V0Z" fill="white"/>
</mask>
<g mask="url(#mask0_2020_23259)">
<path d="M51.7651 27.3469V30.4037H55.7156V27.3469H56.7268V34.41H55.7156V31.3343H51.7651V34.41H50.7539V27.3469H51.7651Z" fill="#002538"/>
<path d="M69.106 30.8675C69.106 32.7539 67.7023 34.5047 65.2591 34.5047C63.0326 34.5047 61.5472 32.8359 61.5472 30.899C61.5472 28.9621 62.8662 27.2523 65.3125 27.2523C67.5515 27.2523 69.106 28.858 69.106 30.8675ZM62.5898 30.899C62.5898 32.4637 63.8365 33.552 65.2811 33.552C66.7256 33.552 68.0665 32.6624 68.0665 30.858C68.0665 29.6561 67.1496 28.205 65.3439 28.205C63.5382 28.205 62.5898 29.3974 62.5898 30.899Z" fill="#002538"/>
<path d="M78.7561 27.3469V28.2365H76.3004V34.41H75.2892V28.2365H72.8774V27.3469H78.7561Z" fill="#002538"/>
<path d="M87.2005 27.3469V28.2491H84.2203V30.4037H87.0969V31.3059H84.2203V33.5015H87.2947V34.4132H83.2123V27.3501H87.2036L87.2005 27.3469Z" fill="#002538"/>
<path d="M93.1357 27.3469V33.4889H96.3012V34.41H92.1151V27.3469H93.1357Z" fill="#002538"/>
<path d="M104.252 27.7507V28.9022C103.778 28.4353 103.232 28.1671 102.604 28.1671C101.976 28.1671 101.574 28.4984 101.574 28.9842C101.574 29.3785 101.655 29.7192 102.729 30.3406C104.215 31.1987 104.535 31.6971 104.535 32.6624C104.535 33.6971 103.722 34.5047 102.494 34.5047C101.803 34.5047 101.153 34.2649 100.597 33.8517V32.5678C101.093 33.2208 101.762 33.6025 102.494 33.6025C103.081 33.6025 103.524 33.2208 103.524 32.6687C103.524 32.1924 103.389 31.8706 101.998 31.0536C100.955 30.4416 100.566 29.8832 100.566 29.0126C100.566 28.0063 101.432 27.2523 102.638 27.2523C103.216 27.2523 103.772 27.429 104.259 27.7507H104.252Z" fill="#002538"/>
<path d="M43.7918 2.63407C42.9188 1.8265 41.8165 1.17666 40.5196 0.709779C39.2163 0.239748 37.6807 0 35.963 0H30.9353V18.041H35.963C37.6839 18.041 39.2163 17.8013 40.5196 17.3312C41.8197 16.8612 42.9188 16.2114 43.7918 15.4006C44.6616 14.5899 45.3274 13.6278 45.7733 12.5426C46.2192 11.4511 46.4422 10.2618 46.4422 9.00316C46.4422 7.74448 46.2161 6.58044 45.7733 5.48896C45.3305 4.40379 44.6648 3.44164 43.7949 2.63722M43.707 12.0757C43.4401 12.9369 43.0758 13.6845 42.6204 14.3028C42.162 14.9243 41.6187 15.4385 41.0063 15.8391C40.4002 16.2334 39.7502 16.5489 39.0782 16.776C38.4093 17.0032 37.709 17.1609 37.0024 17.2461C36.3021 17.3312 35.6112 17.3722 34.9486 17.3722H33.1178V0.675079H34.9486C35.6112 0.675079 36.3021 0.719243 37.0024 0.801262C37.709 0.886435 38.4093 1.04416 39.0782 1.27129C39.7533 1.49842 40.4034 1.81703 41.0095 2.21451C41.6218 2.6183 42.1651 3.1388 42.6236 3.76341C43.0789 4.38486 43.4463 5.14196 43.7101 6.00946C43.9739 6.87382 44.109 7.89905 44.109 9.05363C44.109 10.2019 43.9739 11.2177 43.7101 12.0726" fill="#002538"/>
<path d="M113.614 0L119.298 9.78864V18.041H121.373V9.64669L126.326 0H125.437L120.946 8.68454L116.16 0H113.614Z" fill="#002538"/>
<path d="M5.78761 0L6.6669 2.11356L0 18.041H0.910693L2.96446 13.1956H11.4214L13.4092 18.041H15.689L8.10517 0H5.78761ZM3.24709 12.5205L7.10341 3.16719L11.145 12.5205H3.24709Z" fill="#002538"/>
<path d="M65.5039 0L66.3832 2.11356L59.7163 18.041H60.627L62.6808 13.1956H71.1377L73.1255 18.041H75.4054L67.8246 0H65.5071H65.5039ZM62.9634 12.5205L66.8197 3.16719L70.8613 12.5205H62.9634Z" fill="#002538"/>
<path d="M145.099 0L145.978 2.11356L139.311 18.041H140.222L142.275 13.1956H150.732L152.72 18.041H155L147.416 0H145.099ZM142.558 12.5205L146.414 3.16719L150.456 12.5205H142.558Z" fill="#002538"/>
<path d="M92.9975 0H90.8213V18.041H103.518V17.3659H92.9975V0Z" fill="#002538"/>
</g>
</g>
<defs>
<clipPath id="clip0_2020_23259">
<rect width="155" height="37" fill="white"/>
</clipPath>
</defs>
</svg>
